<svg width="145" height="100" viewBox="0 0 145 100" fill="none" xmlns="http://www.w3.org/2000/svg">
<path d="M94.8275 100C122.442 100 144.827 77.6142 144.827 50C144.827 22.3858 122.442 0 94.8275 0C67.2133 0 44.8276 22.3858 44.8276 50C44.8276 77.6142 67.2133 100 94.8275 100Z" fill="white" style="fill:white;fill-opacity:1;"/>
<path opacity="0.5" d="M50.7571 26.3563C46.7509 24.917 42.4327 24.1328 37.9309 24.1328C16.9823 24.1328 0 41.1152 0 62.0638C0 83.0125 16.9823 99.9949 37.9309 99.9949H94.8273C67.2133 99.9949 44.8275 77.609 44.8275 49.9949C44.8275 41.4442 46.9737 33.3949 50.7571 26.3563Z" fill="white" style="fill:white;fill-opacity:1;"/>
</svg>
