<svg width="691" height="100" viewBox="0 0 691 100" fill="none" xmlns="http://www.w3.org/2000/svg">
<path d="M94.6493 99.82C122.214 99.82 144.559 77.4745 144.559 49.91C144.559 22.3455 122.214 0 94.6493 0C67.0847 0 44.7393 22.3455 44.7393 49.91C44.7393 77.4745 67.0847 99.82 94.6493 99.82Z" fill="white" style="fill:white;fill-opacity:1;"/>
<path opacity="0.5" d="M50.6659 26.4929C46.6669 25.0562 42.3564 24.2734 37.8628 24.2734C16.9517 24.2734 0 41.2253 0 62.1362C0 83.0471 16.9517 99.999 37.8628 99.999H94.6569C67.0925 99.999 44.7469 77.6534 44.7469 50.089C44.7469 41.5537 46.8892 33.5188 50.6659 26.4929Z" fill="white" style="fill:white;fill-opacity:1;"/>
<path d="M215.823 18.3438H219.541C224.993 18.3438 229.95 18.7293 234.411 19.5003C238.927 20.2162 242.699 21.18 245.728 22.3916C248.812 23.5482 251.483 25.0076 253.741 26.7699C256.054 28.4772 257.872 30.212 259.193 31.9743C260.515 33.7367 261.562 35.6642 262.333 37.757C263.159 39.8498 263.682 41.7498 263.902 43.4571C264.178 45.1644 264.315 46.9542 264.315 48.8267V51.305C264.315 53.1775 264.178 54.9674 263.902 56.6746C263.682 58.3819 263.159 60.3095 262.333 62.4573C261.562 64.5501 260.515 66.5052 259.193 68.3226C257.927 70.0849 256.137 71.8473 253.824 73.6096C251.511 75.3719 248.84 76.8589 245.811 78.0705C242.782 79.2821 239.009 80.2459 234.493 80.9619C230.032 81.7329 225.048 82.1184 219.541 82.1184H215.823C210.316 82.1184 205.304 81.7329 200.788 80.9619C196.327 80.2459 192.555 79.2821 189.471 78.0705C186.442 76.8589 183.771 75.3719 181.458 73.6096C179.145 71.8473 177.327 70.0849 176.005 68.3226C174.739 66.5052 173.692 64.5501 172.866 62.4573C172.095 60.3095 171.572 58.3819 171.297 56.6746C171.076 54.9674 170.966 53.1775 170.966 51.305V48.8267C170.966 46.9542 171.076 45.1644 171.297 43.4571C171.572 41.7498 172.095 39.8498 172.866 37.757C173.692 35.6642 174.739 33.7367 176.005 31.9743C177.327 30.212 179.145 28.4772 181.458 26.7699C183.771 25.0076 186.442 23.5482 189.471 22.3916C192.555 21.18 196.327 20.2162 200.788 19.5003C205.304 18.7293 210.316 18.3438 215.823 18.3438ZM240.028 50.5615V49.405C240.028 47.5876 239.698 45.9078 239.037 44.3658C238.376 42.7687 237.247 41.2266 235.65 39.7397C234.108 38.2527 231.795 37.0686 228.71 36.1874C225.626 35.3063 221.936 34.8657 217.641 34.8657C213.235 34.8657 209.49 35.3063 206.406 36.1874C203.322 37.0686 201.009 38.2527 199.467 39.7397C197.925 41.2266 196.823 42.7687 196.162 44.3658C195.556 45.9078 195.254 47.5876 195.254 49.405V50.3963C195.254 52.2137 195.584 53.9485 196.245 55.6007C196.906 57.1978 198.007 58.7949 199.549 60.3921C201.091 61.9341 203.404 63.1733 206.488 64.1095C209.628 65.0457 213.345 65.5139 217.641 65.5139C221.936 65.5139 225.626 65.0733 228.71 64.1921C231.85 63.2559 234.19 62.0167 235.732 60.4747C237.274 58.9326 238.376 57.363 239.037 55.7659C239.698 54.1137 240.028 52.3789 240.028 50.5615Z" fill="white" style="fill:white;fill-opacity:1;"/>
<path d="M289.019 80.9619H264.484L284.971 58.079L264.897 36.5179H290.423L300.584 48.1658L310.497 36.5179H335.198L315.619 57.7486L336.271 80.9619H311.241L300.088 67.9095L289.019 80.9619Z" fill="white" style="fill:white;fill-opacity:1;"/>
<path d="M344.762 96.4925V82.7793H354.84C356.217 82.7793 356.905 82.3112 356.905 81.3749V81.2923C356.905 80.6865 356.272 79.1995 355.005 76.8314L334.022 36.5179H357.979L370.371 65.1008L381.853 36.5179H404.158L382.762 82.8619C380.559 87.6533 378.136 91.1229 375.492 93.2707C372.849 95.4186 369.572 96.4925 365.662 96.4925H344.762Z" fill="white" style="fill:white;fill-opacity:1;"/>
<path d="M439.839 82.201H434.882C429.43 82.201 424.639 81.7054 420.508 80.714C416.433 79.6677 413.266 78.3734 411.008 76.8314C408.75 75.2893 406.905 73.4444 405.473 71.2965C404.096 69.0936 403.188 67.0834 402.747 65.266C402.362 63.3935 402.169 61.3834 402.169 59.2355V57.7486C402.169 42.7687 413.046 35.2787 434.8 35.2787H439.921C445.539 35.2787 450.44 35.8019 454.626 36.8483C458.867 37.8396 462.088 39.0512 464.291 40.4831C466.494 41.86 468.257 43.5397 469.578 45.5223C470.955 47.505 471.809 49.2122 472.139 50.6441C472.47 52.076 472.635 53.563 472.635 55.105V55.3529H449.669C449.559 54.692 449.339 54.0311 449.008 53.3702C448.733 52.7094 448.21 51.9108 447.439 50.9746C446.668 49.9833 445.401 49.1847 443.639 48.5789C441.932 47.9731 439.839 47.6702 437.361 47.6702H437.03C432.624 47.6702 429.513 48.6615 427.695 50.6441C425.878 52.5717 424.969 55.0224 424.969 57.9964V58.4094C424.969 61.5486 425.905 64.2196 427.778 66.4226C429.65 68.5704 432.734 69.6443 437.03 69.6443H437.361C439.784 69.6443 441.849 69.3414 443.556 68.7356C445.319 68.0748 446.585 67.2487 447.356 66.2574C448.182 65.211 448.733 64.3573 449.008 63.6965C449.339 62.9805 449.559 62.2921 449.669 61.6312H472.635V61.7964C472.635 62.8428 472.552 63.8617 472.387 64.853C472.277 65.8443 471.946 67.0559 471.396 68.4878C470.9 69.8646 470.212 71.1589 469.33 72.3705C468.449 73.5821 467.155 74.8212 465.448 76.0879C463.796 77.2995 461.841 78.3459 459.583 79.2271C457.38 80.1082 454.571 80.8242 451.156 81.3749C447.797 81.9257 444.024 82.201 439.839 82.201Z" fill="white" style="fill:white;fill-opacity:1;"/>
<path d="M515.238 82.201H509.125C503.673 82.201 498.881 81.7054 494.751 80.714C490.621 79.6677 487.344 78.401 484.92 76.914C482.552 75.372 480.625 73.527 479.138 71.3791C477.651 69.2313 476.659 67.1936 476.164 65.266C475.668 63.3385 475.42 61.3008 475.42 59.1529V57.8312C475.42 55.7384 475.668 53.7558 476.164 51.8833C476.659 49.9557 477.623 47.9455 479.055 45.8528C480.542 43.76 482.47 41.9701 484.838 40.4831C487.206 38.9962 490.455 37.757 494.586 36.7657C498.771 35.7744 503.59 35.2787 509.042 35.2787H515.321C537.68 35.2787 548.86 42.7687 548.86 57.7486V59.2355C548.86 61.4385 548.668 63.4762 548.282 65.3486C547.897 67.1661 546.988 69.1762 545.556 71.3791C544.179 73.5821 542.334 75.427 540.021 76.914C537.708 78.401 534.431 79.6677 530.191 80.714C525.95 81.7054 520.966 82.201 515.238 82.201ZM512.264 47.8354H512.182C507.115 47.8354 503.508 48.8542 501.36 50.892C499.267 52.8746 498.221 55.3253 498.221 58.2442V58.5747C498.221 61.5486 499.267 64.137 501.36 66.34C503.508 68.4878 507.115 69.5617 512.182 69.5617H512.264C517.221 69.5617 520.773 68.4603 522.921 66.2574C525.069 63.9994 526.143 61.4385 526.143 58.5747V58.2442C526.143 55.3253 525.069 52.8746 522.921 50.892C520.828 48.8542 517.276 47.8354 512.264 47.8354Z" fill="white" style="fill:white;fill-opacity:1;"/>
<path d="M553.714 80.9619V36.5179H576.019V44.3658C576.845 43.5948 577.478 43.0165 577.919 42.631C578.415 42.1904 579.433 41.4469 580.975 40.4005C582.573 39.3541 584.115 38.5556 585.602 38.0048C587.089 37.399 589.016 36.8483 591.384 36.3527C593.807 35.8019 596.341 35.5266 598.984 35.5266H599.48C603.445 35.5266 606.887 36.0773 609.806 37.1788C612.78 38.2251 615.066 39.6295 616.663 41.3918C618.26 43.0991 619.416 44.889 620.132 46.7615C620.903 48.5789 621.289 50.4514 621.289 52.3789V80.9619H598.737V59.7312C598.737 56.592 597.855 54.1137 596.093 52.2963C594.386 50.4238 591.687 49.4876 587.997 49.4876C584.307 49.4876 581.416 50.4789 579.323 52.4615C577.23 54.4442 576.184 57.0601 576.184 60.3095V80.9619H553.714Z" fill="white" style="fill:white;fill-opacity:1;"/>
<path d="M659.823 82.201H655.28C635.508 82.201 625.623 76.9415 625.623 66.4226V65.8443H648.506C648.506 66.395 648.588 66.9182 648.753 67.4139C648.974 67.9095 649.359 68.4878 649.91 69.1487C650.461 69.8096 651.397 70.3328 652.719 70.7183C654.096 71.1038 655.748 71.2965 657.675 71.2965H657.841C661.42 71.2965 663.843 70.9661 665.11 70.3052C666.377 69.6443 667.01 68.7356 667.01 67.5791V67.4139C667.01 66.2574 666.459 65.4037 665.358 64.853C664.257 64.2472 661.971 63.8892 658.501 63.7791L649.084 63.5312C633.774 62.9805 626.118 58.3268 626.118 49.5702V49.0745C626.118 47.0919 626.504 45.3571 627.275 43.8701C628.046 42.3281 629.423 40.8686 631.405 39.4918C633.443 38.115 636.445 37.0686 640.41 36.3527C644.43 35.6367 649.387 35.2787 655.28 35.2787H659.658C679.099 35.2787 688.819 39.8773 688.819 49.0745V49.6528H666.349C666.239 48.9369 666.046 48.3586 665.771 47.918C665.496 47.4223 664.642 46.8992 663.21 46.3484C661.833 45.7977 659.906 45.5223 657.427 45.5223H657.345C653.93 45.5223 651.617 45.7702 650.406 46.2658C649.249 46.7064 648.671 47.4774 648.671 48.5789V48.6615C648.671 49.6528 649.249 50.4238 650.406 50.9746C651.562 51.5253 653.738 51.8557 656.932 51.9659L666.267 52.2137C672.82 52.434 677.887 53.1224 681.467 54.279C685.047 55.4355 687.442 56.95 688.654 58.8225C689.866 60.695 690.471 63.2008 690.471 66.34V66.9182C690.471 68.6806 690.251 70.2777 689.81 71.7096C689.37 73.0864 688.489 74.4632 687.167 75.8401C685.845 77.1618 684.083 78.2908 681.88 79.2271C679.677 80.1082 676.703 80.8242 672.958 81.3749C669.268 81.9257 664.89 82.201 659.823 82.201Z" fill="white" style="fill:white;fill-opacity:1;"/>
</svg>
